<?xml version="1.0" encoding="utf-8"?><svg width="auto" height="4170" style="overflow:visible " version="1.1" xmlns="http://www.w3.org/2000/svg"><rect x="20" y="20" width="200" height="40" style="fill:white;stroke:black;stroke-width:1" /><text x="30" y="30" font-size="10" style="fill:blue">rutas</text><rect x="240" y="20" width="200" height="40" style="fill:white;stroke:black;stroke-width:1" /><text x="250" y="30" font-size="10" style="fill:blue">ruta</text><path d="M220 40 C240 40 220 40 240 40" style="fill:transparent;stroke:black" /><rect x="460" y="20" width="200" height="40" style="fill:white;stroke:black;stroke-width:1" /><text x="470" y="30" font-size="10" style="fill:blue">nombre</text><path d="M440 40 C460 40 440 40 460 40" style="fill:transparent;stroke:black" /><rect x="526" y="20" width="137" height="40" style="fill:green;stroke:black;stroke-width:1" /><text x="536" y="30" font-size="8" style="fill:white">Excursión de un Día a los Acantilados de Moher</text><rect x="460" y="70" width="200" height="40" style="fill:white;stroke:black;stroke-width:1" /><text x="470" y="80" font-size="10" style="fill:blue">tipo</text><path d="M440 40 C460 40 440 90 460 90" style="fill:transparent;stroke:black" /><rect x="526" y="70" width="137" height="40" style="fill:green;stroke:black;stroke-width:1" /><text x="536" y="80" font-size="8" style="fill:white"> Senderismo </text><rect x="460" y="120" width="200" height="40" style="fill:white;stroke:black;stroke-width:1" /><text x="470" y="130" font-size="10" style="fill:blue">transporte</text><path d="M440 40 C460 40 440 140 460 140" style="fill:transparent;stroke:black" /><rect x="526" y="120" width="137" height="40" style="fill:green;stroke:black;stroke-width:1" /><text x="536" y="130" font-size="8" style="fill:white"> A pie  </text><rect x="460" y="170" width="200" height="40" style="fill:white;stroke:black;stroke-width:1" /><text x="470" y="180" font-size="10" style="fill:blue">fechaInicio</text><path d="M440 40 C460 40 440 190 460 190" style="fill:transparent;stroke:black" /><rect x="526" y="170" width="137" height="40" style="fill:green;stroke:black;stroke-width:1" /><text x="536" y="180" font-size="8" style="fill:white"> 25/10/2023 </text><rect x="460" y="220" width="200" height="40" style="fill:white;stroke:black;stroke-width:1" /><text x="470" y="230" font-size="10" style="fill:blue">horaInicio</text><path d="M440 40 C460 40 440 240 460 240" style="fill:transparent;stroke:black" /><rect x="526" y="220" width="137" height="40" style="fill:green;stroke:black;stroke-width:1" /><text x="536" y="230" font-size="8" style="fill:white"> 9:00 </text><rect x="460" y="270" width="200" height="40" style="fill:white;stroke:black;stroke-width:1" /><text x="470" y="280" font-size="10" style="fill:blue">duracion</text><path d="M440 40 C460 40 440 290 460 290" style="fill:transparent;stroke:black" /><rect x="526" y="270" width="137" height="40" style="fill:green;stroke:black;stroke-width:1" /><text x="536" y="280" font-size="8" style="fill:white"> 5 horas </text><rect x="460" y="320" width="200" height="40" style="fill:white;stroke:black;stroke-width:1" /><text x="470" y="330" font-size="10" style="fill:blue">agencia</text><path d="M440 40 C460 40 440 340 460 340" style="fill:transparent;stroke:black" /><rect x="526" y="320" width="137" height="40" style="fill:green;stroke:black;stroke-width:1" /><text x="536" y="330" font-size="8" style="fill:white"> IrlandaTravel </text><rect x="460" y="370" width="200" height="40" style="fill:white;stroke:black;stroke-width:1" /><text x="470" y="380" font-size="10" style="fill:blue">descripcion</text><path d="M440 40 C460 40 440 390 460 390" style="fill:transparent;stroke:black" /><rect x="526" y="370" width="137" height="40" style="fill:green;stroke:black;stroke-width:1" /><text x="536" y="380" font-size="8" style="fill:white"> Ruta a pie hasta los acantilados de Moher  </text><rect x="460" y="420" width="200" height="40" style="fill:white;stroke:black;stroke-width:1" /><text x="470" y="430" font-size="10" style="fill:blue">tipoPersona</text><path d="M440 40 C460 40 440 440 460 440" style="fill:transparent;stroke:black" /><rect x="526" y="420" width="137" height="40" style="fill:green;stroke:black;stroke-width:1" /><text x="536" y="430" font-size="8" style="fill:white"> Mayores de 9 años </text><rect x="460" y="470" width="200" height="40" style="fill:white;stroke:black;stroke-width:1" /><text x="470" y="480" font-size="10" style="fill:blue">lugarInicio</text><path d="M440 40 C460 40 440 490 460 490" style="fill:transparent;stroke:black" /><rect x="526" y="470" width="137" height="40" style="fill:green;stroke:black;stroke-width:1" /><text x="536" y="480" font-size="8" style="fill:white"> Parada de bus Eireann </text><rect x="460" y="520" width="200" height="40" style="fill:white;stroke:black;stroke-width:1" /><text x="470" y="530" font-size="10" style="fill:blue">direccionInicio</text><path d="M440 40 C460 40 440 540 460 540" style="fill:transparent;stroke:black" /><rect x="526" y="520" width="137" height="40" style="fill:green;stroke:black;stroke-width:1" /><text x="536" y="530" font-size="8" style="fill:white"> Ēireann Bus Stop in Cliffs of Moher, Moher Rd, Irlanda </text><rect x="460" y="570" width="200" height="40" style="fill:white;stroke:black;stroke-width:1" /><text x="470" y="580" font-size="10" style="fill:blue">coordenadas</text><path d="M440 40 C460 40 440 590 460 590" style="fill:transparent;stroke:black" /><rect x="680" y="570" width="200" height="40" style="fill:white;stroke:black;stroke-width:1" /><text x="690" y="580" font-size="10" style="fill:blue">longitud</text><path d="M660 590 C680 590 660 590 680 590" style="fill:transparent;stroke:black" /><rect x="746" y="570" width="137" height="40" style="fill:green;stroke:black;stroke-width:1" /><text x="756" y="580" font-size="8" style="fill:white">  9.4301    </text><rect x="680" y="620" width="200" height="40" style="fill:white;stroke:black;stroke-width:1" /><text x="690" y="630" font-size="10" style="fill:blue">latitud</text><path d="M660 590 C680 590 660 640 680 640" style="fill:transparent;stroke:black" /><rect x="746" y="620" width="137" height="40" style="fill:green;stroke:black;stroke-width:1" /><text x="756" y="630" font-size="8" style="fill:white">   52.9711 </text><rect x="680" y="670" width="200" height="40" style="fill:white;stroke:black;stroke-width:1" /><text x="690" y="680" font-size="10" style="fill:blue">altitud</text><path d="M660 590 C680 590 660 690 680 690" style="fill:transparent;stroke:black" /><rect x="746" y="670" width="137" height="40" style="fill:green;stroke:black;stroke-width:1" /><text x="756" y="680" font-size="8" style="fill:white">   214         </text><rect x="460" y="770" width="200" height="40" style="fill:white;stroke:black;stroke-width:1" /><text x="470" y="780" font-size="10" style="fill:blue">referencias</text><path d="M440 40 C460 40 440 790 460 790" style="fill:transparent;stroke:black" /><rect x="680" y="770" width="200" height="40" style="fill:white;stroke:black;stroke-width:1" /><text x="690" y="780" font-size="10" style="fill:blue">referencia</text><path d="M660 790 C680 790 660 790 680 790" style="fill:transparent;stroke:black" /><rect x="746" y="770" width="137" height="40" style="fill:green;stroke:black;stroke-width:1" /><text x="756" y="780" font-size="8" style="fill:white"> https://es.wikipedia.org/wiki/Acantilados_de_Moher </text><rect x="460" y="870" width="200" height="40" style="fill:white;stroke:black;stroke-width:1" /><text x="470" y="880" font-size="10" style="fill:blue">hitos</text><path d="M440 40 C460 40 440 890 460 890" style="fill:transparent;stroke:black" /><rect x="680" y="870" width="200" height="40" style="fill:white;stroke:black;stroke-width:1" /><text x="690" y="880" font-size="10" style="fill:blue">nombre</text><path d="M660 890 C680 890 660 890 680 890" style="fill:transparent;stroke:black" /><rect x="746" y="870" width="137" height="40" style="fill:green;stroke:black;stroke-width:1" /><text x="756" y="880" font-size="8" style="fill:white"> O'Brien's Tower </text><rect x="680" y="920" width="200" height="40" style="fill:white;stroke:black;stroke-width:1" /><text x="690" y="930" font-size="10" style="fill:blue">coordenadas</text><path d="M660 890 C680 890 660 940 680 940" style="fill:transparent;stroke:black" /><rect x="900" y="920" width="200" height="40" style="fill:white;stroke:black;stroke-width:1" /><text x="910" y="930" font-size="10" style="fill:blue">longitud</text><path d="M880 940 C900 940 880 940 900 940" style="fill:transparent;stroke:black" /><rect x="966" y="920" width="137" height="40" style="fill:green;stroke:black;stroke-width:1" /><text x="976" y="930" font-size="8" style="fill:white">  9.4304   </text><rect x="900" y="970" width="200" height="40" style="fill:white;stroke:black;stroke-width:1" /><text x="910" y="980" font-size="10" style="fill:blue">latitud</text><path d="M880 940 C900 940 880 990 900 990" style="fill:transparent;stroke:black" /><rect x="966" y="970" width="137" height="40" style="fill:green;stroke:black;stroke-width:1" /><text x="976" y="980" font-size="8" style="fill:white">   52.9715 </text><rect x="900" y="1020" width="200" height="40" style="fill:white;stroke:black;stroke-width:1" /><text x="910" y="1030" font-size="10" style="fill:blue">altitud</text><path d="M880 940 C900 940 880 1040 900 1040" style="fill:transparent;stroke:black" /><rect x="966" y="1020" width="137" height="40" style="fill:green;stroke:black;stroke-width:1" /><text x="976" y="1030" font-size="8" style="fill:white">   214        </text><rect x="680" y="1120" width="200" height="40" style="fill:white;stroke:black;stroke-width:1" /><text x="690" y="1130" font-size="10" style="fill:blue">distancia</text><path d="M660 890 C680 890 660 1140 680 1140" style="fill:transparent;stroke:black" /><rect x="746" y="1120" width="137" height="40" style="fill:green;stroke:black;stroke-width:1" /><text x="756" y="1130" font-size="8" style="fill:white"> 2 km </text><rect x="680" y="1170" width="200" height="40" style="fill:white;stroke:black;stroke-width:1" /><text x="690" y="1180" font-size="10" style="fill:blue">fotografias</text><path d="M660 890 C680 890 660 1190 680 1190" style="fill:transparent;stroke:black" /><rect x="900" y="1170" width="200" height="40" style="fill:white;stroke:black;stroke-width:1" /><text x="910" y="1180" font-size="10" style="fill:blue">foto</text><path d="M880 1190 C900 1190 880 1190 900 1190" style="fill:transparent;stroke:black" /><rect x="966" y="1170" width="137" height="40" style="fill:green;stroke:black;stroke-width:1" /><text x="976" y="1180" font-size="8" style="fill:white"> oBriensTower.png </text><rect x="240" y="1370" width="200" height="40" style="fill:white;stroke:black;stroke-width:1" /><text x="250" y="1380" font-size="10" style="fill:blue">ruta</text><path d="M220 40 C240 40 220 1390 240 1390" style="fill:transparent;stroke:black" /><rect x="460" y="1370" width="200" height="40" style="fill:white;stroke:black;stroke-width:1" /><text x="470" y="1380" font-size="10" style="fill:blue">nombre</text><path d="M440 1390 C460 1390 440 1390 460 1390" style="fill:transparent;stroke:black" /><rect x="526" y="1370" width="137" height="40" style="fill:green;stroke:black;stroke-width:1" /><text x="536" y="1380" font-size="8" style="fill:white">Excursión a la Calzada del Gigante</text><rect x="460" y="1420" width="200" height="40" style="fill:white;stroke:black;stroke-width:1" /><text x="470" y="1430" font-size="10" style="fill:blue">tipo</text><path d="M440 1390 C460 1390 440 1440 460 1440" style="fill:transparent;stroke:black" /><rect x="526" y="1420" width="137" height="40" style="fill:green;stroke:black;stroke-width:1" /><text x="536" y="1430" font-size="8" style="fill:white"> Senderismo y monumentos </text><rect x="460" y="1470" width="200" height="40" style="fill:white;stroke:black;stroke-width:1" /><text x="470" y="1480" font-size="10" style="fill:blue">transporte</text><path d="M440 1390 C460 1390 440 1490 460 1490" style="fill:transparent;stroke:black" /><rect x="526" y="1470" width="137" height="40" style="fill:green;stroke:black;stroke-width:1" /><text x="536" y="1480" font-size="8" style="fill:white"> A pie y Tren </text><rect x="460" y="1520" width="200" height="40" style="fill:white;stroke:black;stroke-width:1" /><text x="470" y="1530" font-size="10" style="fill:blue">fechaInicio</text><path d="M440 1390 C460 1390 440 1540 460 1540" style="fill:transparent;stroke:black" /><rect x="526" y="1520" width="137" height="40" style="fill:green;stroke:black;stroke-width:1" /><text x="536" y="1530" font-size="8" style="fill:white"> 12/11/2023 </text><rect x="460" y="1570" width="200" height="40" style="fill:white;stroke:black;stroke-width:1" /><text x="470" y="1580" font-size="10" style="fill:blue">horaInicio</text><path d="M440 1390 C460 1390 440 1590 460 1590" style="fill:transparent;stroke:black" /><rect x="526" y="1570" width="137" height="40" style="fill:green;stroke:black;stroke-width:1" /><text x="536" y="1580" font-size="8" style="fill:white"> 9:30 </text><rect x="460" y="1620" width="200" height="40" style="fill:white;stroke:black;stroke-width:1" /><text x="470" y="1630" font-size="10" style="fill:blue">duracion</text><path d="M440 1390 C460 1390 440 1640 460 1640" style="fill:transparent;stroke:black" /><rect x="526" y="1620" width="137" height="40" style="fill:green;stroke:black;stroke-width:1" /><text x="536" y="1630" font-size="8" style="fill:white"> 6 horas </text><rect x="460" y="1670" width="200" height="40" style="fill:white;stroke:black;stroke-width:1" /><text x="470" y="1680" font-size="10" style="fill:blue">agencia</text><path d="M440 1390 C460 1390 440 1690 460 1690" style="fill:transparent;stroke:black" /><rect x="526" y="1670" width="137" height="40" style="fill:green;stroke:black;stroke-width:1" /><text x="536" y="1680" font-size="8" style="fill:white"> IrlandaAdventure </text><rect x="460" y="1720" width="200" height="40" style="fill:white;stroke:black;stroke-width:1" /><text x="470" y="1730" font-size="10" style="fill:blue">descripcion</text><path d="M440 1390 C460 1390 440 1740 460 1740" style="fill:transparent;stroke:black" /><rect x="526" y="1720" width="137" height="40" style="fill:green;stroke:black;stroke-width:1" /><text x="536" y="1730" font-size="8" style="fill:white"> Ruta a pie a la Calzada del Gigante, un sitio natural impresionante en la costa norte de Irlanda.  </text><rect x="460" y="1770" width="200" height="40" style="fill:white;stroke:black;stroke-width:1" /><text x="470" y="1780" font-size="10" style="fill:blue">tipoPersona</text><path d="M440 1390 C460 1390 440 1790 460 1790" style="fill:transparent;stroke:black" /><rect x="526" y="1770" width="137" height="40" style="fill:green;stroke:black;stroke-width:1" /><text x="536" y="1780" font-size="8" style="fill:white"> Mayores de 8 años </text><rect x="460" y="1820" width="200" height="40" style="fill:white;stroke:black;stroke-width:1" /><text x="470" y="1830" font-size="10" style="fill:blue">lugarInicio</text><path d="M440 1390 C460 1390 440 1840 460 1840" style="fill:transparent;stroke:black" /><rect x="526" y="1820" width="137" height="40" style="fill:green;stroke:black;stroke-width:1" /><text x="536" y="1830" font-size="8" style="fill:white"> Centro de Visitantes de la Calzada del Gigante </text><rect x="460" y="1870" width="200" height="40" style="fill:white;stroke:black;stroke-width:1" /><text x="470" y="1880" font-size="10" style="fill:blue">direccionInicio</text><path d="M440 1390 C460 1390 440 1890 460 1890" style="fill:transparent;stroke:black" /><rect x="526" y="1870" width="137" height="40" style="fill:green;stroke:black;stroke-width:1" /><text x="536" y="1880" font-size="8" style="fill:white"> 2 Causeway Rd, Bushmills, Condado de Antrim, Irlanda del Norte </text><rect x="460" y="1920" width="200" height="40" style="fill:white;stroke:black;stroke-width:1" /><text x="470" y="1930" font-size="10" style="fill:blue">coordenadas</text><path d="M440 1390 C460 1390 440 1940 460 1940" style="fill:transparent;stroke:black" /><rect x="680" y="1920" width="200" height="40" style="fill:white;stroke:black;stroke-width:1" /><text x="690" y="1930" font-size="10" style="fill:blue">longitud</text><path d="M660 1940 C680 1940 660 1940 680 1940" style="fill:transparent;stroke:black" /><rect x="746" y="1920" width="137" height="40" style="fill:green;stroke:black;stroke-width:1" /><text x="756" y="1930" font-size="8" style="fill:white">  -6.5143 </text><rect x="680" y="1970" width="200" height="40" style="fill:white;stroke:black;stroke-width:1" /><text x="690" y="1980" font-size="10" style="fill:blue">latitud</text><path d="M660 1940 C680 1940 660 1990 680 1990" style="fill:transparent;stroke:black" /><rect x="746" y="1970" width="137" height="40" style="fill:green;stroke:black;stroke-width:1" /><text x="756" y="1980" font-size="8" style="fill:white">   55.2400 </text><rect x="680" y="2020" width="200" height="40" style="fill:white;stroke:black;stroke-width:1" /><text x="690" y="2030" font-size="10" style="fill:blue">altitud</text><path d="M660 1940 C680 1940 660 2040 680 2040" style="fill:transparent;stroke:black" /><rect x="746" y="2020" width="137" height="40" style="fill:green;stroke:black;stroke-width:1" /><text x="756" y="2030" font-size="8" style="fill:white">   10      </text><rect x="460" y="2120" width="200" height="40" style="fill:white;stroke:black;stroke-width:1" /><text x="470" y="2130" font-size="10" style="fill:blue">referencias</text><path d="M440 1390 C460 1390 440 2140 460 2140" style="fill:transparent;stroke:black" /><rect x="680" y="2120" width="200" height="40" style="fill:white;stroke:black;stroke-width:1" /><text x="690" y="2130" font-size="10" style="fill:blue">referencia</text><path d="M660 2140 C680 2140 660 2140 680 2140" style="fill:transparent;stroke:black" /><rect x="746" y="2120" width="137" height="40" style="fill:green;stroke:black;stroke-width:1" /><text x="756" y="2130" font-size="8" style="fill:white"> https://es.wikipedia.org/wiki/Calzada_del_Gigante </text><rect x="460" y="2220" width="200" height="40" style="fill:white;stroke:black;stroke-width:1" /><text x="470" y="2230" font-size="10" style="fill:blue">hitos</text><path d="M440 1390 C460 1390 440 2240 460 2240" style="fill:transparent;stroke:black" /><rect x="680" y="2220" width="200" height="40" style="fill:white;stroke:black;stroke-width:1" /><text x="690" y="2230" font-size="10" style="fill:blue">nombre</text><path d="M660 2240 C680 2240 660 2240 680 2240" style="fill:transparent;stroke:black" /><rect x="746" y="2220" width="137" height="40" style="fill:green;stroke:black;stroke-width:1" /><text x="756" y="2230" font-size="8" style="fill:white"> Formaciones de la Calzada del Gigante </text><rect x="680" y="2270" width="200" height="40" style="fill:white;stroke:black;stroke-width:1" /><text x="690" y="2280" font-size="10" style="fill:blue">coordenadas</text><path d="M660 2240 C680 2240 660 2290 680 2290" style="fill:transparent;stroke:black" /><rect x="900" y="2270" width="200" height="40" style="fill:white;stroke:black;stroke-width:1" /><text x="910" y="2280" font-size="10" style="fill:blue">longitud</text><path d="M880 2290 C900 2290 880 2290 900 2290" style="fill:transparent;stroke:black" /><rect x="966" y="2270" width="137" height="40" style="fill:green;stroke:black;stroke-width:1" /><text x="976" y="2280" font-size="8" style="fill:white">  -6.4164 </text><rect x="900" y="2320" width="200" height="40" style="fill:white;stroke:black;stroke-width:1" /><text x="910" y="2330" font-size="10" style="fill:blue">latitud</text><path d="M880 2290 C900 2290 880 2340 900 2340" style="fill:transparent;stroke:black" /><rect x="966" y="2320" width="137" height="40" style="fill:green;stroke:black;stroke-width:1" /><text x="976" y="2330" font-size="8" style="fill:white">   55.2405 </text><rect x="900" y="2370" width="200" height="40" style="fill:white;stroke:black;stroke-width:1" /><text x="910" y="2380" font-size="10" style="fill:blue">altitud</text><path d="M880 2290 C900 2290 880 2390 900 2390" style="fill:transparent;stroke:black" /><rect x="966" y="2370" width="137" height="40" style="fill:green;stroke:black;stroke-width:1" /><text x="976" y="2380" font-size="8" style="fill:white">   5       </text><rect x="680" y="2470" width="200" height="40" style="fill:white;stroke:black;stroke-width:1" /><text x="690" y="2480" font-size="10" style="fill:blue">distancia</text><path d="M660 2240 C680 2240 660 2490 680 2490" style="fill:transparent;stroke:black" /><rect x="746" y="2470" width="137" height="40" style="fill:green;stroke:black;stroke-width:1" /><text x="756" y="2480" font-size="8" style="fill:white"> 3 km </text><rect x="680" y="2520" width="200" height="40" style="fill:white;stroke:black;stroke-width:1" /><text x="690" y="2530" font-size="10" style="fill:blue">fotografias</text><path d="M660 2240 C680 2240 660 2540 680 2540" style="fill:transparent;stroke:black" /><rect x="900" y="2520" width="200" height="40" style="fill:white;stroke:black;stroke-width:1" /><text x="910" y="2530" font-size="10" style="fill:blue">foto</text><path d="M880 2540 C900 2540 880 2540 900 2540" style="fill:transparent;stroke:black" /><rect x="966" y="2520" width="137" height="40" style="fill:green;stroke:black;stroke-width:1" /><text x="976" y="2530" font-size="8" style="fill:white"> calzadaDelGigante.png </text><rect x="680" y="2620" width="200" height="40" style="fill:white;stroke:black;stroke-width:1" /><text x="690" y="2630" font-size="10" style="fill:blue">videos</text><path d="M660 2240 C680 2240 660 2640 680 2640" style="fill:transparent;stroke:black" /><rect x="900" y="2620" width="200" height="40" style="fill:white;stroke:black;stroke-width:1" /><text x="910" y="2630" font-size="10" style="fill:blue">video</text><path d="M880 2640 C900 2640 880 2640 900 2640" style="fill:transparent;stroke:black" /><rect x="966" y="2620" width="137" height="40" style="fill:green;stroke:black;stroke-width:1" /><text x="976" y="2630" font-size="8" style="fill:white"> calzadaDelGigante.mp4</text><rect x="240" y="2820" width="200" height="40" style="fill:white;stroke:black;stroke-width:1" /><text x="250" y="2830" font-size="10" style="fill:blue">ruta</text><path d="M220 40 C240 40 220 2840 240 2840" style="fill:transparent;stroke:black" /><rect x="460" y="2820" width="200" height="40" style="fill:white;stroke:black;stroke-width:1" /><text x="470" y="2830" font-size="10" style="fill:blue">nombre</text><path d="M440 2840 C460 2840 440 2840 460 2840" style="fill:transparent;stroke:black" /><rect x="526" y="2820" width="137" height="40" style="fill:green;stroke:black;stroke-width:1" /><text x="536" y="2830" font-size="8" style="fill:white">Excursión al Parque Nacional de Wicklow</text><rect x="460" y="2870" width="200" height="40" style="fill:white;stroke:black;stroke-width:1" /><text x="470" y="2880" font-size="10" style="fill:blue">tipo</text><path d="M440 2840 C460 2840 440 2890 460 2890" style="fill:transparent;stroke:black" /><rect x="526" y="2870" width="137" height="40" style="fill:green;stroke:black;stroke-width:1" /><text x="536" y="2880" font-size="8" style="fill:white"> Senderismo, Naturaleza y Monumentos </text><rect x="460" y="2920" width="200" height="40" style="fill:white;stroke:black;stroke-width:1" /><text x="470" y="2930" font-size="10" style="fill:blue">transporte</text><path d="M440 2840 C460 2840 440 2940 460 2940" style="fill:transparent;stroke:black" /><rect x="526" y="2920" width="137" height="40" style="fill:green;stroke:black;stroke-width:1" /><text x="536" y="2930" font-size="8" style="fill:white"> A pie y Bus </text><rect x="460" y="2970" width="200" height="40" style="fill:white;stroke:black;stroke-width:1" /><text x="470" y="2980" font-size="10" style="fill:blue">fechaInicio</text><path d="M440 2840 C460 2840 440 2990 460 2990" style="fill:transparent;stroke:black" /><rect x="526" y="2970" width="137" height="40" style="fill:green;stroke:black;stroke-width:1" /><text x="536" y="2980" font-size="8" style="fill:white"> 17/12/2023 </text><rect x="460" y="3020" width="200" height="40" style="fill:white;stroke:black;stroke-width:1" /><text x="470" y="3030" font-size="10" style="fill:blue">horaInicio</text><path d="M440 2840 C460 2840 440 3040 460 3040" style="fill:transparent;stroke:black" /><rect x="526" y="3020" width="137" height="40" style="fill:green;stroke:black;stroke-width:1" /><text x="536" y="3030" font-size="8" style="fill:white"> 10:00 </text><rect x="460" y="3070" width="200" height="40" style="fill:white;stroke:black;stroke-width:1" /><text x="470" y="3080" font-size="10" style="fill:blue">duracion</text><path d="M440 2840 C460 2840 440 3090 460 3090" style="fill:transparent;stroke:black" /><rect x="526" y="3070" width="137" height="40" style="fill:green;stroke:black;stroke-width:1" /><text x="536" y="3080" font-size="8" style="fill:white"> 4 horas </text><rect x="460" y="3120" width="200" height="40" style="fill:white;stroke:black;stroke-width:1" /><text x="470" y="3130" font-size="10" style="fill:blue">agencia</text><path d="M440 2840 C460 2840 440 3140 460 3140" style="fill:transparent;stroke:black" /><rect x="526" y="3120" width="137" height="40" style="fill:green;stroke:black;stroke-width:1" /><text x="536" y="3130" font-size="8" style="fill:white"> IrlandaTravel </text><rect x="460" y="3170" width="200" height="40" style="fill:white;stroke:black;stroke-width:1" /><text x="470" y="3180" font-size="10" style="fill:blue">descripcion</text><path d="M440 2840 C460 2840 440 3190 460 3190" style="fill:transparent;stroke:black" /><rect x="526" y="3170" width="137" height="40" style="fill:green;stroke:black;stroke-width:1" /><text x="536" y="3180" font-size="8" style="fill:white"> Ruta a pie para explorar el hermoso Parque Nacional de Wicklow en el este de Irlanda.  </text><rect x="460" y="3220" width="200" height="40" style="fill:white;stroke:black;stroke-width:1" /><text x="470" y="3230" font-size="10" style="fill:blue">tipoPersona</text><path d="M440 2840 C460 2840 440 3240 460 3240" style="fill:transparent;stroke:black" /><rect x="526" y="3220" width="137" height="40" style="fill:green;stroke:black;stroke-width:1" /><text x="536" y="3230" font-size="8" style="fill:white"> Mayores de 12 años </text><rect x="460" y="3270" width="200" height="40" style="fill:white;stroke:black;stroke-width:1" /><text x="470" y="3280" font-size="10" style="fill:blue">lugarInicio</text><path d="M440 2840 C460 2840 440 3290 460 3290" style="fill:transparent;stroke:black" /><rect x="526" y="3270" width="137" height="40" style="fill:green;stroke:black;stroke-width:1" /><text x="536" y="3280" font-size="8" style="fill:white"> Centro de Visitantes del Parque Nacional de Wicklow </text><rect x="460" y="3320" width="200" height="40" style="fill:white;stroke:black;stroke-width:1" /><text x="470" y="3330" font-size="10" style="fill:blue">direccionInicio</text><path d="M440 2840 C460 2840 440 3340 460 3340" style="fill:transparent;stroke:black" /><rect x="526" y="3320" width="137" height="40" style="fill:green;stroke:black;stroke-width:1" /><text x="536" y="3330" font-size="8" style="fill:white"> Wicklow Mountains National Park, Greenan, Condado de Wicklow, Irlanda </text><rect x="460" y="3370" width="200" height="40" style="fill:white;stroke:black;stroke-width:1" /><text x="470" y="3380" font-size="10" style="fill:blue">coordenadas</text><path d="M440 2840 C460 2840 440 3390 460 3390" style="fill:transparent;stroke:black" /><rect x="680" y="3370" width="200" height="40" style="fill:white;stroke:black;stroke-width:1" /><text x="690" y="3380" font-size="10" style="fill:blue">longitud</text><path d="M660 3390 C680 3390 660 3390 680 3390" style="fill:transparent;stroke:black" /><rect x="746" y="3370" width="137" height="40" style="fill:green;stroke:black;stroke-width:1" /><text x="756" y="3380" font-size="8" style="fill:white">  -6.2747 </text><rect x="680" y="3420" width="200" height="40" style="fill:white;stroke:black;stroke-width:1" /><text x="690" y="3430" font-size="10" style="fill:blue">latitud</text><path d="M660 3390 C680 3390 660 3440 680 3440" style="fill:transparent;stroke:black" /><rect x="746" y="3420" width="137" height="40" style="fill:green;stroke:black;stroke-width:1" /><text x="756" y="3430" font-size="8" style="fill:white">   53.0121 </text><rect x="680" y="3470" width="200" height="40" style="fill:white;stroke:black;stroke-width:1" /><text x="690" y="3480" font-size="10" style="fill:blue">altitud</text><path d="M660 3390 C680 3390 660 3490 680 3490" style="fill:transparent;stroke:black" /><rect x="746" y="3470" width="137" height="40" style="fill:green;stroke:black;stroke-width:1" /><text x="756" y="3480" font-size="8" style="fill:white">   150     </text><rect x="460" y="3570" width="200" height="40" style="fill:white;stroke:black;stroke-width:1" /><text x="470" y="3580" font-size="10" style="fill:blue">referencias</text><path d="M440 2840 C460 2840 440 3590 460 3590" style="fill:transparent;stroke:black" /><rect x="680" y="3570" width="200" height="40" style="fill:white;stroke:black;stroke-width:1" /><text x="690" y="3580" font-size="10" style="fill:blue">referencia</text><path d="M660 3590 C680 3590 660 3590 680 3590" style="fill:transparent;stroke:black" /><rect x="746" y="3570" width="137" height="40" style="fill:green;stroke:black;stroke-width:1" /><text x="756" y="3580" font-size="8" style="fill:white"> https://es.wikipedia.org/wiki/Parque_Nacional_de_Wicklow_Mountains </text><rect x="460" y="3670" width="200" height="40" style="fill:white;stroke:black;stroke-width:1" /><text x="470" y="3680" font-size="10" style="fill:blue">hitos</text><path d="M440 2840 C460 2840 440 3690 460 3690" style="fill:transparent;stroke:black" /><rect x="680" y="3670" width="200" height="40" style="fill:white;stroke:black;stroke-width:1" /><text x="690" y="3680" font-size="10" style="fill:blue">nombre</text><path d="M660 3690 C680 3690 660 3690 680 3690" style="fill:transparent;stroke:black" /><rect x="746" y="3670" width="137" height="40" style="fill:green;stroke:black;stroke-width:1" /><text x="756" y="3680" font-size="8" style="fill:white"> Cascada de Powerscourt </text><rect x="680" y="3720" width="200" height="40" style="fill:white;stroke:black;stroke-width:1" /><text x="690" y="3730" font-size="10" style="fill:blue">longitud</text><path d="M660 3690 C680 3690 660 3740 680 3740" style="fill:transparent;stroke:black" /><rect x="746" y="3720" width="137" height="40" style="fill:green;stroke:black;stroke-width:1" /><text x="756" y="3730" font-size="8" style="fill:white">  -6.1860 </text><rect x="680" y="3770" width="200" height="40" style="fill:white;stroke:black;stroke-width:1" /><text x="690" y="3780" font-size="10" style="fill:blue">latitud</text><path d="M660 3690 C680 3690 660 3790 680 3790" style="fill:transparent;stroke:black" /><rect x="746" y="3770" width="137" height="40" style="fill:green;stroke:black;stroke-width:1" /><text x="756" y="3780" font-size="8" style="fill:white">   53.1847 </text><rect x="680" y="3820" width="200" height="40" style="fill:white;stroke:black;stroke-width:1" /><text x="690" y="3830" font-size="10" style="fill:blue">altitud</text><path d="M660 3690 C680 3690 660 3840 680 3840" style="fill:transparent;stroke:black" /><rect x="746" y="3820" width="137" height="40" style="fill:green;stroke:black;stroke-width:1" /><text x="756" y="3830" font-size="8" style="fill:white">   75      </text><rect x="680" y="3870" width="200" height="40" style="fill:white;stroke:black;stroke-width:1" /><text x="690" y="3880" font-size="10" style="fill:blue">distancia</text><path d="M660 3690 C680 3690 660 3890 680 3890" style="fill:transparent;stroke:black" /><rect x="746" y="3870" width="137" height="40" style="fill:green;stroke:black;stroke-width:1" /><text x="756" y="3880" font-size="8" style="fill:white"> 4 km </text><rect x="680" y="3920" width="200" height="40" style="fill:white;stroke:black;stroke-width:1" /><text x="690" y="3930" font-size="10" style="fill:blue">fotografias</text><path d="M660 3690 C680 3690 660 3940 680 3940" style="fill:transparent;stroke:black" /><rect x="900" y="3920" width="200" height="40" style="fill:white;stroke:black;stroke-width:1" /><text x="910" y="3930" font-size="10" style="fill:blue">foto</text><path d="M880 3940 C900 3940 880 3940 900 3940" style="fill:transparent;stroke:black" /><rect x="966" y="3920" width="137" height="40" style="fill:green;stroke:black;stroke-width:1" /><text x="976" y="3930" font-size="8" style="fill:white"> powerscourtCascada.png </text></svg>